<svg xmlns="http://www.w3.org/2000/svg" fill="none" viewBox="0 0 1000 1000" height="1000" width="1000">
<path fill="#FAF9F5" d="M749.15 421.541C748.152 422.888 747.038 426.148 746.015 427.711C734.49 445.265 721.8 463.866 709.111 480.564C698.816 494.118 684.372 508.171 672.531 520.379C663.808 529.376 657.189 533.891 647.693 541.55C629.864 555.927 613.824 573.173 595.538 586.869C587.522 592.873 578.89 597.604 571.082 604.124C563.199 610.701 556.464 618.817 548.838 625.403C540.83 632.322 531.268 637.344 523.027 644.013C511.335 653.476 504.117 663.887 490.563 672.302C482.921 677.05 475.62 681.774 468.228 686.688C463.463 689.856 458.624 693.365 453.426 695.511C446.965 690.63 439.689 686.938 433.145 682.19C400.739 658.665 367.794 636.022 336.045 611.549C303.507 586.47 274.993 555.861 244.425 528.636C228.892 514.799 214.714 493.852 202.914 476.756C183.68 448.882 162.659 421.69 145.687 392.087C138.818 380.105 137.239 357.794 134.129 343.799C132.033 334.361 128.366 325.064 126.312 315.801C124.408 307.194 120.574 289.724 121.647 281.641C125.173 255.115 132.391 229.021 135.833 202.444C146.319 188.375 157.021 174.771 168.438 161.607C181.336 146.739 193.526 131.081 207.03 116.778C209.317 114.358 208.036 113.876 212.144 112.82C244.824 104.446 285.678 102.185 319.464 100.912C322.183 100.813 329.509 100.122 331.596 100.563C333.434 100.946 341.558 107.457 344.02 108.987C362.339 120.346 381.381 130.249 400.232 140.727C417.404 150.273 427.424 157.998 441.02 172.251C444.945 176.359 448.279 181.074 452.287 185.115C453.044 185.182 459.796 177.988 461.127 176.841C481.865 159.013 504.949 143.03 527.293 127.397C545.52 114.641 557.054 106.193 579.805 102.384C592.944 100.181 606.556 99.0912 619.586 97.7275C627.029 96.9542 636.392 95.0333 643.635 95C646.379 94.9917 657.888 101.386 661.521 102.941C665.446 104.613 670.128 105.644 673.936 107.299C683.466 111.431 693.07 117.901 702.309 121.992C707.88 124.462 713.9 125.975 719.63 128.694C732.752 134.914 738.897 139.455 747.379 151.271C753.599 159.944 757.299 167.395 761.615 176.932C769.124 193.53 779.734 210.71 784.133 228.314C786.17 236.471 786.162 245.094 787.667 253.335C789.172 261.576 795.401 278.697 795.109 286.04C794.893 291.428 791.559 300.866 790.378 306.621C785.671 329.522 781.664 354.144 775.078 376.554C770.022 393.759 759.494 407.62 749.141 421.557L749.15 421.541Z"></path>
<path fill="#141413" d="M637.489 597.305C645.663 592.524 652.632 585.356 660.207 579.901C672.248 571.236 690.65 566.762 703.83 575.161C712.146 580.458 713.609 584.491 714.549 594.362V611.35C717.784 605.737 722.324 599.95 726.781 595.251C733.774 587.884 747.553 573.124 757.083 570.679C768.766 567.686 782.22 573.091 790.511 581.406C796.756 587.668 798.086 599.259 798.652 607.716C800.922 605.139 802.585 602.087 804.772 599.459C817.636 584.042 830.151 570.396 851.696 569.598C863.72 569.157 867.304 572.375 874.73 580.857C892.018 600.582 883.137 617.853 876.094 639.373C874.472 644.338 873.79 650.391 871.886 655.115C866.057 669.608 859.754 683.803 852.195 697.532C833.111 732.182 812.588 765.985 793.064 800.245C781.655 820.26 769.298 840.117 755.212 858.278C749.84 865.205 744.111 873.753 737.458 879.732C736.768 880.348 735.587 880.256 735.063 880.738C734.198 881.528 731.205 885.977 729.542 887.682C725.999 891.291 721.958 896.006 718.199 899.465C717.626 899.997 711.655 904.621 711.248 904.779C709.393 905.502 709.127 904.221 707.955 904.221C703.14 904.205 704.046 904.679 699.24 903.423C693.452 901.91 693.369 903.631 691.981 897.078C691.848 896.43 692.396 895.615 692.247 895.008C692.031 894.085 690.135 891.407 690.085 891.191C689.278 887.665 694.176 877.67 696.621 874.735C698.542 872.431 701.294 870.976 703.04 869.138C707.763 864.166 709.335 860 715.497 855.077C720.977 850.695 725.176 845.863 730.822 841.39C732.128 840.35 733.292 837.332 735.13 835.943C743.129 829.906 746.763 825.615 753.025 818.256C771.967 796.004 793.579 772.28 806.743 745.945C826.966 705.481 848.029 666.216 864.003 623.682C868.627 611.375 870.381 595.875 858.889 586.878C854.216 587.485 850.465 587.302 845.892 588.799C830.417 593.879 817.819 623.624 809.661 637.344C792.033 666.997 770.945 691.229 749.449 718.121C747.021 721.156 743.004 724.449 740.859 727.318C733.101 737.687 726.207 750.959 719.355 761.919C713.859 770.716 706.641 780.936 699.831 788.636C699.406 789.11 699.257 790.133 698.908 790.432C698.076 791.156 696.945 790.698 695.98 791.131C693.403 792.295 694.467 792.337 691.266 793.143C690.891 793.235 690.966 794.074 690.742 794.049C690.101 793.991 689.079 791.946 687.166 792.212C686.775 792.262 687.133 793.143 686.318 793.093C683.84 792.919 682.509 791.256 681.537 790.898C680.115 790.374 677.088 790.266 675.84 789.443C675.707 789.351 673.836 787.106 673.795 786.957C673.429 785.801 674.252 784.911 674.211 784.337C674.177 783.938 673.088 783.971 672.863 783.339C672.564 782.458 673.454 781.252 673.304 780.288C673.254 779.98 672.431 780.005 672.423 779.805C672.348 776.878 675.208 768.529 676.88 766.143C679.915 761.827 686.759 756.364 691.149 751.616C711.605 729.522 726.515 702.105 744.26 677.575C747.936 672.494 752.809 667.729 756.168 662.731C760.808 655.83 766.928 643.24 770.629 635.482C776.616 622.9 783.385 607.384 778.337 593.572C777.264 590.636 776.283 589.78 773.472 588.458C759.02 581.655 750.621 590.403 741.267 600.224C731.454 610.519 723.921 623.723 716.437 635.665C708.196 648.82 702.101 661.484 694.958 674.955C682.942 697.64 670.444 719.593 654.461 739.633C643.127 753.852 631.594 769.511 619.811 782.957C616.892 786.291 613.217 789.052 610.423 791.929C609.508 792.869 608.618 795.023 607.845 795.696C607.595 795.921 602.099 798.415 601.774 798.482C600.244 798.814 599.255 798.016 598.24 798.099C595.479 798.324 595.396 799.787 592.195 797.825C590.307 796.669 589.85 796.453 587.821 795.405C585.908 794.415 585.809 792.935 585.002 792.203C583.83 791.139 581.626 790.133 580.778 788.828C580.703 788.711 579.979 786.308 579.988 786.175C580.054 785.293 581.56 779.597 581.967 778.649C585.01 771.648 594.681 763.931 599.829 757.977C605.117 751.865 609.874 744.697 615.254 738.502C624.326 728.058 636.017 718.77 644.183 708.067C658.594 689.166 671.275 666.972 683.249 646.466C693.095 629.611 705.385 616.298 701.735 594.894C700.837 589.622 699.074 587.094 693.419 586.445C687.232 585.73 676.198 590.894 671.974 595.293C665.08 602.469 657.754 612.864 651.892 620.996C638.886 639.041 626.529 657.601 611.936 674.207C611.221 675.022 608.801 676.036 608.577 676.277C592.711 693.69 574.674 709.19 557.686 725.804C549.561 733.754 542.992 743.308 535.026 751.657C528.872 758.11 521.779 763.673 515.485 769.76C512.333 772.812 507.826 779.88 503.594 781.011C502.479 781.31 497.507 781.543 496.401 781.202C494.696 780.662 487.894 775.83 486.813 774.583C485.374 772.92 486.347 771.673 486.405 770.592C486.472 769.377 486.439 766.667 486.846 765.627C490.048 757.278 509.88 742.494 517.123 735.567C535.234 718.254 550.601 698.155 566.775 679.138C576.08 668.195 583.996 656.054 592.411 644.479C598.673 635.856 612.402 620.505 615.57 610.968C618.497 602.145 616.892 593.796 615.312 584.882C609.807 581.755 601.45 586.188 596.378 589.048C589.617 592.865 585.459 597.704 580.071 602.885C541.82 639.698 510.986 681.258 466.723 710.995C457.127 717.439 446.566 724 436.621 729.397C415.391 740.922 393.796 752.331 371.693 761.96C358.854 767.548 341.159 774.483 327.505 777.136C322.698 778.067 317.51 777.568 312.778 778.275C307.972 778.99 303.506 781.061 298.866 782.042C291.291 783.63 278.502 784.603 271.874 787.239C269.496 788.187 267.991 792.012 266.394 792.228C264.182 791.621 256.956 792.644 255.385 791.688C255.102 791.513 252.807 786.183 252.699 785.534C250.545 773.045 257.314 754.992 260.615 742.893C265.106 726.445 267.808 714.537 275.433 699.228C283.923 682.198 292.638 665.209 301.544 648.379C308.138 635.931 320.478 618.917 310.807 604.565C304.928 595.842 298.459 598.86 291.15 603.883C274.652 615.233 261.995 636.604 252.05 653.634C229.224 692.717 210.78 734.61 193.301 775.755C185.144 794.964 178.508 814.531 171.64 834.355C167.332 846.77 162.359 859.193 157.861 871.799C156.805 874.768 155.142 881.412 154.11 883.458C153.927 883.823 150.851 887.973 150.593 888.098C150.177 888.289 146.901 888.688 146.286 888.671C135.567 888.447 137.879 875.317 138.303 868.099C140.007 839.111 143.583 818.389 155.932 792.353C165.328 772.537 176.587 753.778 185.834 733.837C189.019 726.977 191.871 719.859 195.355 713.464C207.014 692.068 222.963 671.222 236.01 650.283C251.252 625.811 268.166 586.279 300.638 582.096C316.129 580.101 330.216 594.395 332.785 608.889C337.043 632.962 328.336 647.315 319.48 668.469C310.658 689.549 301.536 710.537 293.037 731.783C289.811 739.858 285.57 747.142 281.869 755.075C280.597 757.802 273.014 775.548 273.903 776.803C279.017 773.61 286.651 772.679 291.69 769.885C300.288 765.12 307.074 762.709 316.196 759.033C338.373 750.102 360.268 738.161 380.932 726.295C393.954 718.819 407.417 711.144 420.231 703.469C476.011 670.066 526.744 627.457 575.614 583.236C582.05 577.415 594.64 569.498 602.922 567.02C619.669 562.014 631.22 571.769 635.801 587.385C636.691 590.428 636.816 594.104 637.481 597.264L637.489 597.305Z"></path>
</svg>
